<svg xmlns="http://www.w3.org/2000/svg" viewBox="0 0 101.35 30.96"><defs><style>.cls-1{fill:#1d1d1b;}</style></defs><g id="Слой_2" data-name="Слой 2"><g id="Слой_1-2" data-name="Слой 1"><path d="M13.39,23.89c.63-1.06,1.22-2.08,1.86-3.07.09-.14.42-.19.63-.19h6.35L17.9,13.12l-1,1.7q-4.6,7.79-9.2,15.58a1,1,0,0,1-1,.56c-1-.05-2.09,0-3.24,0l4.13-7H0L11.15,4.77c.64,1.09,1.25,2.1,1.81,3.15.08.16-.06.48-.18.69Q9.48,14.3,6.16,20l-.36.65c1.24,0,2.39,0,3.54,0,.19,0,.4-.3.52-.5Q13.75,13.58,17.61,7l.32-.51L28,23.89Z"/><path d="M14,0c.61,1.05,1.18,2,1.72,3a.79.79,0,0,1,0,.64c-.53,1-1.11,1.94-1.73,3-.63-1.1-1.24-2.13-1.83-3.16a.42.42,0,0,1,0-.31Z"/><path class="cls-1" d="M33.32,20.14V10.42h1.75v9.72Z"/><path class="cls-1" d="M37.36,20.14,36,13.2h1.6l.71,5,.69-5h1.57l-1.38,6.94Z"/><path class="cls-1" d="M42.65,20.25a1.34,1.34,0,0,1-.8-.25,1.58,1.58,0,0,1-.51-.63,1.79,1.79,0,0,1-.19-.78,2.25,2.25,0,0,1,.25-1.09,2.3,2.3,0,0,1,.63-.75,4.92,4.92,0,0,1,.9-.52c.34-.15.68-.28,1-.4v-.6a2.35,2.35,0,0,0,0-.5.61.61,0,0,0-.16-.32.49.49,0,0,0-.35-.1.54.54,0,0,0-.33.09.56.56,0,0,0-.18.27,1.59,1.59,0,0,0-.07.4l0,.42-1.55-.06a2.55,2.55,0,0,1,.6-1.77,2.26,2.26,0,0,1,1.69-.57,1.86,1.86,0,0,1,1.52.58,2.35,2.35,0,0,1,.48,1.56v3.2c0,.26,0,.49,0,.7s0,.4.05.56,0,.32,0,.45H44.19c0-.16,0-.34-.09-.55s-.06-.35-.08-.45a1.75,1.75,0,0,1-.45.76A1.24,1.24,0,0,1,42.65,20.25ZM43.26,19a.59.59,0,0,0,.29-.07l.25-.19a1,1,0,0,0,.15-.19V16.64l-.5.32a2.24,2.24,0,0,0-.4.34,1.28,1.28,0,0,0-.27.4,1.33,1.33,0,0,0-.09.51,1.07,1.07,0,0,0,.15.6A.47.47,0,0,0,43.26,19Z"/><path class="cls-1" d="M46.74,20.14V13.2h1.63v.7a3.22,3.22,0,0,1,.78-.58,1.88,1.88,0,0,1,.9-.23,1,1,0,0,1,.68.21,1.23,1.23,0,0,1,.37.56,2.33,2.33,0,0,1,.12.76v5.52H49.59v-5.2a.9.9,0,0,0-.1-.48.38.38,0,0,0-.37-.17.89.89,0,0,0-.36.1,1.78,1.78,0,0,0-.39.24v5.51Z"/><path class="cls-1" d="M55.45,20.14V10.42H58.3a2.79,2.79,0,0,1,1.42.32,1.91,1.91,0,0,1,.81.94,4,4,0,0,1,.26,1.5,3.1,3.1,0,0,1-.33,1.53,1.88,1.88,0,0,1-.9.84,3.27,3.27,0,0,1-1.38.27h-1v4.32Zm1.77-5.57h.68a1.7,1.7,0,0,0,.75-.14A.77.77,0,0,0,59,14a2.68,2.68,0,0,0,.1-.83,3.89,3.89,0,0,0-.08-.85.75.75,0,0,0-.33-.49,1.7,1.7,0,0,0-.81-.16h-.68Z"/><path class="cls-1" d="M63.73,20.25A2.46,2.46,0,0,1,62.48,20a1.69,1.69,0,0,1-.74-.82,3.19,3.19,0,0,1-.24-1.31V15.51a3.19,3.19,0,0,1,.24-1.31,1.76,1.76,0,0,1,.74-.83,2.57,2.57,0,0,1,1.25-.28,2.6,2.6,0,0,1,1.25.28,1.84,1.84,0,0,1,.75.83A3.19,3.19,0,0,1,66,15.51v2.32a3.19,3.19,0,0,1-.24,1.31A1.76,1.76,0,0,1,65,20,2.49,2.49,0,0,1,63.73,20.25Zm0-1.13a.5.5,0,0,0,.41-.16.81.81,0,0,0,.17-.42,5.6,5.6,0,0,0,0-.6V15.4a5.28,5.28,0,0,0,0-.59.89.89,0,0,0-.17-.43.53.53,0,0,0-.41-.16.52.52,0,0,0-.41.16.89.89,0,0,0-.17.43,3.51,3.51,0,0,0,0,.59v2.54a3.73,3.73,0,0,0,0,.6.81.81,0,0,0,.17.42A.49.49,0,0,0,63.74,19.12Z"/><path class="cls-1" d="M67.19,20.14V10.42h1.62v9.72Z"/><path class="cls-1" d="M72.21,20.25A2.49,2.49,0,0,1,71,20a1.74,1.74,0,0,1-.74-.82A3.19,3.19,0,0,1,70,17.83V15.51a3.19,3.19,0,0,1,.24-1.31,1.82,1.82,0,0,1,.74-.83,2.6,2.6,0,0,1,1.25-.28,2.64,2.64,0,0,1,1.26.28,1.76,1.76,0,0,1,.74.83,3.19,3.19,0,0,1,.24,1.31v2.32a3.19,3.19,0,0,1-.24,1.31,1.69,1.69,0,0,1-.74.82A2.53,2.53,0,0,1,72.21,20.25Zm0-1.13a.49.49,0,0,0,.41-.16.73.73,0,0,0,.17-.42,5.49,5.49,0,0,0,0-.6V15.4a5.14,5.14,0,0,0,0-.59.8.8,0,0,0-.17-.43.52.52,0,0,0-.41-.16.5.5,0,0,0-.4.16.89.89,0,0,0-.18.43,3.57,3.57,0,0,0,0,.59v2.54a3.78,3.78,0,0,0,0,.6.81.81,0,0,0,.18.42A.47.47,0,0,0,72.22,19.12Z"/><path class="cls-1" d="M76.47,20.14,75.09,13.2h1.6l.7,5,.7-5h1.57l-1.38,6.94Z"/><path class="cls-1" d="M80.47,22V20.85a4.12,4.12,0,0,0,.68-.05.67.67,0,0,0,.38-.17.45.45,0,0,0,.12-.34,2.52,2.52,0,0,0-.07-.49c-.06-.22-.11-.47-.18-.73L79.88,13.2h1.58l.9,4.57.78-4.57h1.57l-1.62,7.21a2,2,0,0,1-.44,1,1.78,1.78,0,0,1-.78.5,3.59,3.59,0,0,1-1.09.15Z"/><path class="cls-1" d="M85.47,20.14V13.2H87.1v.7a3.27,3.27,0,0,1,.79-.58,1.82,1.82,0,0,1,.89-.23,1.05,1.05,0,0,1,.69.21,1.31,1.31,0,0,1,.37.56,2.33,2.33,0,0,1,.12.76v5.52H88.33v-5.2a1,1,0,0,0-.1-.48.39.39,0,0,0-.37-.17.93.93,0,0,0-.37.1,2.06,2.06,0,0,0-.39.24v5.51Z"/><path class="cls-1" d="M91.17,20.14V10.42H92.8V16l1.79-2.8h1.78L94.63,16l1.7,4.15H94.61l-1.26-3.42-.55.77v2.65Z"/><path class="cls-1" d="M98.35,20.25a1.37,1.37,0,0,1-.81-.25,1.58,1.58,0,0,1-.51-.63,1.78,1.78,0,0,1-.18-.78,2.25,2.25,0,0,1,.24-1.09,2.3,2.3,0,0,1,.63-.75,4.92,4.92,0,0,1,.9-.52c.34-.15.68-.28,1-.4v-.6a2.35,2.35,0,0,0,0-.5.61.61,0,0,0-.16-.32.49.49,0,0,0-.35-.1.54.54,0,0,0-.33.09.64.64,0,0,0-.18.27,1.59,1.59,0,0,0-.07.4l0,.42-1.55-.06a2.55,2.55,0,0,1,.6-1.77,2.26,2.26,0,0,1,1.69-.57,1.86,1.86,0,0,1,1.52.58,2.35,2.35,0,0,1,.48,1.56v3.2c0,.26,0,.49,0,.7s0,.4.05.56,0,.32.06.45H99.88c0-.16,0-.34-.09-.55s-.06-.35-.08-.45a1.75,1.75,0,0,1-.45.76A1.23,1.23,0,0,1,98.35,20.25ZM99,19a.59.59,0,0,0,.29-.07l.25-.19a1,1,0,0,0,.15-.19V16.64l-.5.32a2.24,2.24,0,0,0-.4.34,1.28,1.28,0,0,0-.27.4,1.33,1.33,0,0,0-.09.51,1.07,1.07,0,0,0,.15.6A.47.47,0,0,0,99,19Z"/></g></g></svg>